HIERARCHY
ROOT Hips
{
	OFFSET -0.179506 -22.333345 2.821913
	CHANNELS 6 Xposition Yposition Zposition Zrotation Yrotation Xrotation 
	JOINT LeftUpLeg
	{
		OFFSET 6.951974 -9.140623 -0.681533
		CHANNELS 3 Zrotation Yrotation Xrotation
		JOINT LeftLeg
		{
			OFFSET 3.427654 -37.519855 -0.449580
			CHANNELS 3 Zrotation Yrotation Xrotation
			JOINT LeftFoot
			{
				OFFSET -1.359570 -39.796059 -4.369333
				CHANNELS 3 Zrotation Yrotation Xrotation
				JOINT LeftToe
				{
					OFFSET 2.635814 -5.579078 11.928840
					CHANNELS 3 Zrotation Yrotation Xrotation
					End Site
					{
						OFFSET 0.000000 0.000000 0.000000
					}
				}
			}
		}
	}
	JOINT RightUpLeg
	{
		OFFSET -6.767048 -9.052170 -0.431982
		CHANNELS 3 Zrotation Yrotation Xrotation
		JOINT RightLeg
		{
			OFFSET -3.829005 -38.256897 -0.885003
			CHANNELS 3 Zrotation Yrotation Xrotation
			JOINT RightFoot
			{
				OFFSET 1.577377 -39.841461 -4.231180
				CHANNELS 3 Zrotation Yrotation Xrotation
				JOINT RightToe
				{
					OFFSET -2.537174 -4.814398 12.334795
					CHANNELS 3 Zrotation Yrotation Xrotation
					End Site
					{
						OFFSET 0.000000 0.000000 0.000000
					}
				}
			}
		}
	}
	JOINT Spine
	{
		OFFSET -0.253288 10.896323 -2.669631
		CHANNELS 3 Zrotation Yrotation Xrotation
		JOINT Spine1
		{
			OFFSET 0.548704 13.518043 0.109247
			CHANNELS 3 Zrotation Yrotation Xrotation
			JOINT Spine2
			{
				OFFSET 0.145701 5.292222 2.542457
				CHANNELS 3 Zrotation Yrotation Xrotation
				JOINT Neck
				{
					OFFSET -0.277840 21.387037 -4.285703
					CHANNELS 3 Zrotation Yrotation Xrotation
					JOINT Head
					{
						OFFSET 0.515184 6.496960 5.134897
						CHANNELS 3 Zrotation Yrotation Xrotation
						End Site
						{
							OFFSET 0.000000 0.000000 0.000000
						}
					}
				}
				JOINT LeftShoulder
				{
					OFFSET 7.884473 12.174932 -3.408961
					CHANNELS 3 Zrotation Yrotation Xrotation
					JOINT LeftArm
					{
						OFFSET 9.097692 3.046888 -0.886815
						CHANNELS 3 Zrotation Yrotation Xrotation
						JOINT LeftForeArm
						{
							OFFSET 25.961220 -1.277207 -2.745643
							CHANNELS 3 Zrotation Yrotation Xrotation
							JOINT LeftHand
							{
								OFFSET 24.923361 0.898606 -0.117091
								CHANNELS 3 Zrotation Yrotation Xrotation
								End Site
								{
									OFFSET 0.000000 0.000000 0.000000
								}
							}
						}
					}
				}
				JOINT RightShoulder
				{
					OFFSET -8.175920 11.883285 -3.861528
					CHANNELS 3 Zrotation Yrotation Xrotation
					JOINT RightArm
					{
						OFFSET -9.601238 3.255117 -0.914307
						CHANNELS 3 Zrotation Yrotation Xrotation
						JOINT RightForeArm
						{
							OFFSET -25.374195 -1.332924 -2.140099
							CHANNELS 3 Zrotation Yrotation Xrotation
							JOINT RightHand
							{
								OFFSET -25.529810 0.777228 -0.555919
								CHANNELS 3 Zrotation Yrotation Xrotation
								End Site
								{
									OFFSET 0.000000 0.000000 0.000000
								}
							}
						}
					}
				}
			}
		}
	}
}
MOTION
Frames: 13
Frame Time: 0.033333
12.504121 46.510498 89.057312 -105.254600 2.010229 85.909489 14.432577 5.860318 0.605095 -0.924194 7.399091 22.504026 1.309516 2.670887 -27.609730 nan nan nan -13.210914 -9.820715 -16.976159 -1.856538 -16.335310 25.851043 7.734359 1.675635 -9.225775 nan nan nan -6.520219 3.624304 5.988589 5.495232 -3.196462 6.873997 2.289847 0.569223 -3.073213 4.529125 -12.822907 9.582130 4.159017 -25.722503 19.802374 -9.704742 -13.749456 -0.057421 -75.663967 -36.480532 25.355040 163.927169 -68.043269 -125.281362 -3.158838 -22.010350 -24.033004 17.696936 10.220814 2.248416 46.172633 20.611233 -4.646094 -113.050138 46.738673 -84.962006 6.772858 10.727456 -11.364702 
12.482693 46.698204 89.020851 -104.966901 2.027302 85.778007 14.653946 5.777247 0.761209 -0.962065 7.363529 22.429348 1.179519 2.428290 -27.576820 nan nan nan -13.209655 -9.832573 -16.975681 -2.005764 -16.518970 26.495316 7.446046 1.618932 -9.485850 nan nan nan -6.549064 3.555886 5.945446 5.535064 -3.323153 7.444895 2.237212 0.510955 -3.227550 4.766364 -12.561859 9.140413 3.832850 -26.030307 20.073034 -9.781561 -13.822880 -0.164537 -75.405359 -36.720146 25.279065 163.287077 -68.015159 -124.447175 -3.424959 -22.405925 -23.756821 17.716226 10.264533 2.146144 46.104356 20.859495 -4.547926 -112.949502 46.635177 -84.410247 6.701218 10.763576 -11.570707 
12.423122 46.908409 89.004715 -104.704770 2.067196 85.888019 14.873252 5.731089 0.748230 -1.063491 7.244714 22.232021 1.067126 2.332976 -27.461603 nan nan nan -13.076370 -9.796125 -17.184302 -2.184796 -16.625437 27.047333 7.157578 1.452906 -9.776503 nan nan nan -6.519042 3.380428 6.050824 5.524327 -3.380206 7.165153 2.211464 0.482383 -3.282968 4.661611 -12.486266 9.257067 3.765363 -26.026497 20.216454 -9.910454 -13.702912 -0.098705 -75.255845 -36.681765 25.129024 163.491298 -67.995490 -124.506427 -3.600087 -22.494345 -24.048871 17.720893 10.246043 2.409431 46.151605 20.876800 -4.581403 -113.210005 46.663503 -84.303642 6.403557 10.707480 -11.800074 
12.389903 47.131428 88.957893 -104.488556 2.040757 85.947234 15.093336 5.540304 0.802114 -1.344223 7.172323 22.014733 0.994000 2.406962 -27.380329 nan nan nan -13.084653 -9.674351 -17.428349 -2.278678 -16.882122 27.728107 6.878896 1.372958 -10.272794 nan nan nan -6.668273 3.385752 5.391639 5.648189 -3.601032 8.053246 2.097436 0.496255 -3.242326 4.998070 -12.038784 9.099296 3.734666 -26.373300 19.896880 -9.890253 -13.925268 -0.188186 -74.925863 -36.857917 25.049475 163.131761 -67.873613 -124.258277 -3.510632 -22.210337 -24.366715 17.786934 10.435906 2.484400 45.984268 21.099920 -4.731537 -113.362225 46.526371 -84.092327 5.904884 10.688051 -12.076160 
12.328979 47.357269 88.929420 -104.259017 2.037560 85.992523 15.309567 5.666427 0.851856 -1.425744 6.931202 21.861100 0.889731 2.174052 -27.291575 nan nan nan -13.044520 -9.630215 -17.547448 -2.356950 -17.040338 28.255154 6.854848 1.367982 -10.653316 nan nan nan -6.825646 3.330836 5.706357 5.717096 -3.542168 7.622854 2.153392 0.315104 -3.206071 5.246412 -11.885439 8.901337 3.513657 -26.346952 20.153370 -9.655400 -13.523630 -0.146962 -75.393984 -36.975117 25.321262 163.746235 -67.916061 -124.627146 -3.141681 -22.023980 -25.048747 17.560420 9.879259 1.652819 46.610887 21.280817 -3.999758 -113.257888 46.935379 -83.855278 5.813351 10.906801 -12.050959 
12.251805 47.590473 88.930389 -103.945970 2.026409 86.043765 15.465031 5.797900 0.890323 -1.420496 6.642821 21.657782 0.953973 2.006666 -27.217830 nan nan nan -13.027386 -9.644353 -17.665442 -2.421673 -17.149436 28.843706 6.832290 1.354383 -11.194524 nan nan nan -6.895213 3.179915 6.176675 5.678650 -3.457327 6.872232 2.203368 0.271502 -3.127576 5.248687 -12.031482 8.859862 3.482636 -26.282520 20.443672 -9.652187 -13.424586 0.019570 -75.594467 -36.940593 25.355681 164.202735 -67.949584 -124.881639 -3.095223 -21.980151 -25.287502 17.472522 9.702322 1.725178 46.852855 21.158250 -4.054554 -113.610493 46.971880 -84.131726 6.114034 11.005951 -12.281348 
12.194822 47.866280 88.936119 -103.569769 2.067561 86.083105 15.734676 5.895413 0.886207 -1.492190 6.327175 21.533031 0.940368 1.851186 -27.135143 nan nan nan -12.950725 -9.657874 -17.757496 -2.496211 -17.312693 29.503041 6.799939 1.432278 -11.801520 nan nan nan -6.974967 3.006386 6.416515 5.687530 -3.485704 6.481265 2.231245 0.193760 -2.988890 5.339330 -12.086170 8.684759 3.386079 -26.304553 20.717567 -9.654852 -13.365483 0.090177 -75.529315 -37.035409 25.255235 164.446307 -68.027106 -124.995726 -3.079347 -21.948596 -25.465778 17.433336 9.525977 1.492990 47.066448 21.132403 -3.927812 -113.760213 47.205350 -84.215138 6.194596 11.131465 -12.430561 
12.161641 48.168545 88.919701 -103.259907 2.095089 86.111084 16.069346 5.927450 0.926870 -1.666329 6.155246 21.363058 0.871727 1.695045 -27.015348 nan nan nan -12.903964 -9.628289 -17.881478 -2.536950 -17.459851 30.151579 6.586570 1.494581 -12.202610 nan nan nan -7.040095 2.907380 6.368771 5.718777 -3.636913 6.760734 2.190045 0.256045 -3.051061 5.497951 -11.871974 8.456716 3.488120 -26.557651 20.587390 -9.629333 -13.494295 -0.008022 -75.319695 -37.084688 25.126346 164.348748 -68.090703 -124.843197 -2.987660 -22.038591 -25.737857 17.517181 9.695429 1.829128 46.863505 21.142809 -4.248042 -114.227356 47.045334 -84.447828 5.856065 11.034052 -12.858223 
12.149197 48.458698 88.888931 -102.971237 2.069806 86.207088 16.284627 5.857598 0.888575 -1.790489 6.050747 21.218854 0.745965 1.619988 -26.903722 nan nan nan -12.941626 -9.627789 -18.112289 -2.638549 -17.714906 30.871481 6.437509 1.546022 -12.296044 nan nan nan -7.196259 3.048022 5.990242 5.850306 -3.709984 7.346821 2.184317 0.040510 -3.108335 5.752148 -11.624581 8.278488 3.436036 -26.846933 20.423342 -9.671328 -13.758396 0.003800 -75.098452 -37.315169 25.001648 163.848350 -68.093884 -124.427152 -3.231707 -22.115285 -25.622652 17.468666 9.781314 1.667686 46.799361 21.180180 -4.281244 -114.406845 46.936733 -84.471611 5.659915 10.882660 -12.973018 
12.104472 48.761185 88.888954 -102.629441 2.057366 86.293007 16.465707 5.956162 0.846292 -1.805063 5.779503 21.070269 0.658980 1.499691 -26.830919 nan nan nan -12.964553 -9.821297 -18.245838 -2.725851 -17.969578 31.504931 6.390573 1.755702 -12.466653 nan nan nan -7.183628 2.864847 6.524326 5.783294 -3.724647 6.677230 2.214752 -0.023729 -3.213022 5.598059 -11.772689 8.461212 3.401674 -26.667810 20.554703 -9.794463 -13.601327 0.094652 -75.077884 -37.203187 24.773532 164.465262 -68.178557 -124.885273 -3.372688 -22.100878 -25.958859 17.324184 9.664239 1.670896 47.092453 21.024327 -4.228686 -114.756223 47.089116 -84.642384 5.474131 10.886878 -12.945632 
12.061193 49.076809 88.893112 -102.284629 2.034118 86.394133 16.646834 6.017807 0.784912 -1.840208 5.538151 20.900423 0.593864 1.505762 -26.734287 nan nan nan -12.996678 -9.923803 -18.369581 -2.738259 -18.217325 32.022623 6.354364 1.913373 -12.755776 nan nan nan -7.183630 2.715046 7.058617 5.733851 -3.713945 5.957556 2.263752 -0.068150 -3.254166 5.412980 -11.951524 8.639441 3.478630 -26.502619 20.556452 -9.955090 -13.532991 0.261588 -75.065708 -37.115760 24.623769 164.861685 -68.359867 -125.141310 -3.296729 -22.147345 -26.212263 17.266731 9.523763 1.892361 47.155833 20.877402 -4.373398 -115.237180 47.162799 -84.882506 5.216590 10.958617 -13.106109 
12.043660 49.381676 88.858215 -101.984868 1.994444 86.507436 16.817226 5.850137 0.734042 -1.902356 5.592961 20.683463 0.520345 1.607765 -26.618242 nan nan nan -13.111528 -9.873373 -18.546785 -2.692753 -18.570573 32.573025 6.341917 2.149425 -12.977179 nan nan nan -7.285885 2.826323 6.484066 5.853814 -3.876895 7.038410 2.170245 -0.136726 -3.455132 5.767677 -11.721146 8.328339 3.482736 -26.921579 20.243593 -10.002040 -13.941492 0.228114 -74.734533 -37.386818 24.607584 163.832306 -68.337132 -124.316700 -3.730039 -22.251079 -25.794037 17.351858 9.527556 1.589526 46.909715 20.932241 -4.463807 -115.466691 47.096455 -84.950050 5.310167 11.055102 -13.256896 
12.031927 49.678040 88.845345 -101.654528 1.954807 86.821046 16.924898 5.766759 0.411944 -1.899318 5.624684 20.570799 0.329894 1.584297 -26.523735 nan nan nan -13.186180 -9.904105 -18.894569 -2.630537 -18.918548 32.966108 6.674439 2.477137 -13.140904 nan nan nan -7.290075 2.622998 6.523597 5.842138 -4.026276 6.699194 2.087815 -0.170258 -3.344184 5.859144 -11.542699 8.230200 3.538833 -26.938187 20.230960 -9.977120 -13.776695 0.185648 -74.696303 -37.402406 24.671516 163.715801 -68.273405 -124.331057 -4.240905 -22.293875 -25.588994 17.322635 9.298764 1.321520 47.114549 21.049690 -4.210423 -115.714473 47.312159 -85.318153 5.420941 11.215796 -13.340535 
